<?xml version="1.0" encoding="UTF-8"?>
<svg id="Layer_2" data-name="Layer 2" xmlns="http://www.w3.org/2000/svg" xmlns:xlink="http://www.w3.org/1999/xlink" viewBox="0 0 766.47 922.18">
  <defs>
    <style>
      .cls-1, .cls-2 {
        fill: #1d253b;
      }

      .cls-3 {
        letter-spacing: -.04em;
      }

      .cls-4 {
        letter-spacing: -.01em;
      }

      .cls-5 {
        filter: url(#drop-shadow-1);
      }

      .cls-2 {
        font-family: SourceSerifRoman-Semibold, 'Source Serif Variable';
        font-size: 117.16px;
        font-variation-settings: 'wght' 600;
        font-weight: 600;
        stroke: #1d253b;
      }

      .cls-2, .cls-6, .cls-7, .cls-8 {
        stroke-miterlimit: 10;
      }

      .cls-2, .cls-7 {
        stroke-width: 2px;
      }

      .cls-9, .cls-6 {
        fill: #e6ddcd;
      }

      .cls-10 {
        fill: #9d9d9c;
      }

      .cls-11 {
        fill: #3c3c3b;
      }

      .cls-6, .cls-7, .cls-8 {
        stroke: #1d1d1b;
      }

      .cls-6, .cls-8 {
        stroke-width: 4px;
      }

      .cls-12, .cls-7, .cls-8 {
        fill: #fdf6e9;
      }

      .cls-13 {
        opacity: .87;
      }

      .cls-14 {
        letter-spacing: -.02em;
      }

      .cls-15 {
        fill: #1d1d1b;
      }
    </style>
    <filter id="drop-shadow-1" filterUnits="userSpaceOnUse">
      <feOffset dx="7" dy="7"/>
      <feGaussianBlur result="blur" stdDeviation="5"/>
      <feFlood flood-color="#1d1d1b" flood-opacity=".75"/>
      <feComposite in2="blur" operator="in"/>
      <feComposite in="SourceGraphic"/>
    </filter>
  </defs>
  <g id="Layer_1-2" data-name="Layer 1">
    <g>
      <g class="cls-13">
        <path class="cls-10" d="M646.76,910.97c-79.58,4.36-172.06,8.24-251.8,11.2-28.08-.26-302.08-.21-334.74-.21,0,0,0-11,0-11,0,0,0-519.45,0-519.45,0,0,0-4.53,0-4.53,0,0,3.19-3.22,3.19-3.22L436.42,7.87S444.23,0,444.23,0c0,0,7.81,7.87,7.81,7.87,42.54,42.75,109.17,110.3,151.21,152.07,54.2,58.79,109.97,120.66,163.23,180.42-14.21-12.76-28.28-25.64-42.43-38.46-44.81-40.77-92.67-85.01-136.73-126.16-41.25-42.18-108.86-109.9-150.9-152.38,0,0,15.62,0,15.62,0,0,0-373.01,375.9-373.01,375.9,0,0,3.19-7.75,3.19-7.75,0,0,0,519.45,0,519.45,0,0-11-11-11-11,0,0,287.77-.01,287.77-.01,11.99-.03,23.98-.48,35.97-.19,10.4,.3,25.42,.95,35.97,1.35,66.51,2.38,149.68,6.4,215.83,9.86h0Z"/>
      </g>
      <g>
        <g>
          <path class="cls-1" d="M724.29,366.94c-11.68-11.68-23.36-23.36-35.05-35.05-28.06-28.06-56.11-56.11-84.17-84.17-33.95-33.95-67.89-67.89-101.84-101.84-29.35-29.35-58.7-58.7-88.05-88.05-14.25-14.25-28.14-28.98-42.8-42.8-.21-.19-.4-.4-.6-.6-5.73-5.73-15.48-5.73-21.21,0s-5.75,15.47,0,21.21c11.68,11.68,23.36,23.36,35.05,35.05,28.06,28.06,56.11,56.11,84.17,84.17,33.95,33.95,67.89,67.89,101.84,101.84,29.35,29.35,58.7,58.7,88.05,88.05,14.25,14.25,28.14,28.98,42.8,42.8,.21,.19,.4,.4,.6,.6,5.73,5.73,15.48,5.73,21.21,0,5.75-5.75,5.75-15.47,0-21.21h0Z"/>
          <path class="cls-1" d="M347.56,11.24c-11.36,11.36-22.72,22.72-34.08,34.08l-81.83,81.83c-32.99,32.99-65.98,65.98-98.97,98.97-28.42,28.42-56.84,56.84-85.26,85.26-13.85,13.85-28.17,27.37-41.62,41.62-.19,.2-.39,.39-.59,.59-5.73,5.73-5.73,15.48,0,21.21s15.47,5.75,21.21,0c11.36-11.36,22.72-22.72,34.08-34.08,27.28-27.28,54.56-54.56,81.83-81.83,32.99-32.99,65.98-65.98,98.97-98.97,28.42-28.42,56.84-56.84,85.26-85.26,13.85-13.85,28.17-27.37,41.62-41.62,.19-.2,.39-.39,.59-.59,5.73-5.73,5.73-15.48,0-21.21s-15.47-5.75-21.21,0h0Z"/>
          <path class="cls-1" d="M.82,364.2c-.02,16.79-.04,33.57-.06,50.36l-.13,119.89-.16,145.96c-.05,41.78-.09,83.57-.14,125.35-.02,20.42-.66,40.94-.07,61.36,0,.28,0,.56,0,.84,0,7.85,6.91,15.36,15,15s14.99-6.59,15-15c.02-16.79,.04-33.57,.06-50.36l.13-119.89,.16-145.96c.05-41.78,.09-83.57,.14-125.35,.02-20.42,.66-40.94,.07-61.36,0-.28,0-.56,0-.84,0-7.85-6.91-15.36-15-15s-14.99,6.59-15,15H.82Z"/>
          <path class="cls-1" d="M16,883.84H561.52c25.22,0,50.54,.68,75.76,0,.34,0,.68,0,1.02,0,7.85,0,15.36-6.9,15-15s-6.59-15-15-15H92.78c-25.22,0-50.54-.68-75.76,0-.34,0-.68,0-1.02,0-7.85,0-15.36,6.9-15,15s6.59,15,15,15h0Z"/>
        </g>
        <path class="cls-1" d="M131.52,250.54V120.3c0-15.44-24-15.47-24,0V250.54c0,15.44,24,15.47,24,0h0Z"/>
        <path class="cls-1" d="M200.76,108.3H119.52c-15.44,0-15.47,24,0,24h81.23c15.44,0,15.47-24,0-24h0Z"/>
        <path class="cls-1" d="M212.76,176.71v-56.41c0-15.44-24-15.47-24,0v56.41c0,15.44,24,15.47,24,0h0Z"/>
      </g>
      <g class="cls-5">
        <g>
          <path class="cls-12" d="M452.03,344c-.07-4.93-.14-9.86-.21-14.79h5.14c.82-.56,2.73-2.06,3.7-4.73,1.61-4.41-.7-8.3-1.03-8.83-.04-1.13-.04-2.3,0-3.49,.33-9.25,3.22-17.06,6.37-23.01-.93-1.08-2.27-2.43-4.11-3.7-1.76-1.22-3.43-1.98-4.73-2.47,.45-.85,.89-1.88,1.23-3.08,.91-3.26,.57-6.11,.21-7.81-8.22,.07-16.44,.14-24.65,.21-1.32-.79-2.89-1.59-4.73-2.26-4.82-1.77-8.94-1.71-11.92-1.64-1.15,.03-4.64,.15-9.04,1.23-2.33,.57-4.28,1.26-5.75,1.85h-25.3c-.33,1.73-.58,4.34,.03,7.4,.31,1.54,.77,2.85,1.23,3.9-.74,.06-2.55,.31-4.31,1.64-1.66,1.26-2.39,2.8-2.67,3.49,1.23,3.22,2.47,7.23,3.29,11.92,1,5.76,1.06,10.83,.82,14.79-.43,1.02-.89,2.41-1.03,4.11-.32,3.81,1.12,6.75,1.85,8.01,.27,1.64,.55,3.29,.82,4.93h5.61v10.51c-.17,3.98,.27,9.64,4.05,13.33,5.02,4.89,13.1,3.54,19.31,2.88,31.89-3.4,50.63,7.52,53.83,.82,1.01-2.12,.58-6.26-8.01-15.2Z"/>
          <path class="cls-15" d="M452.03,344l-.58-14.79s-.01-.37-.01-.37h.39s5.14-.12,5.14-.12c0,0-.27,.09-.27,.09,4.19-2.84,4.97-8.86,2.14-12.92-.13-2.15-.08-5.1,.09-7.23,.6-7,2.96-13.8,6.2-19.99,0,0,.13,1.12,.13,1.12-2.49-2.94-5.85-5.07-9.5-6.28,2.02-3.34,2.75-7.38,1.88-11.22,0,0,.99,.79,.99,.79l-24.65,.21h-.28c-2.31-1.41-4.83-2.49-7.46-3.13-5.09-1.21-10.58-.96-15.72,0-2.66,.52-5.28,1.3-7.79,2.32,0,0-.19,0-.19,0h-25.3s.98-.81,.98-.81c-.81,4.07-.08,8.31,1.76,11.99-1.76,.09-3.69,.37-5.11,1.5-1.08,.79-1.93,1.89-2.43,3.13v-.73c3.31,8.61,4.75,17.93,4.18,27.13,0,0-.01,.18-.01,.18l-.07,.16c-1.61,3.66-1.19,7.98,.86,11.39,0,0,.03,.18,.03,.18,0,0,.82,4.93,.82,4.93,0,0-.99-.84-.99-.84h6.61v1c.09,4.23-.19,10.46,.11,14.63,.71,8.07,6.13,12.09,14.05,11.76,2.39-.02,4.8-.31,7.24-.58,9.83-1.11,19.83-1.01,29.64,.24,4.9,.68,9.74,1.67,14.55,2.5,2.95,.33,7.93,1.76,9.99-.87,2.62-4.47-4.6-12.06-7.41-15.36h0Zm0,0c3.4,3.52,13.1,13.01,6.63,17.22-2.96,1.34-6.32,.62-9.41,.34-4.9-.63-9.73-1.41-14.6-1.87-4.85-.54-9.71-.94-14.59-.98-4.87-.03-9.74,.2-14.59,.76-4.96,.53-10.18,1.27-15.05-.58-6.55-2.32-8.96-9.83-8.59-16.18,.06-2.4,0-8.53,.02-11.03,0,0,1,1,1,1,0,0-5.61,0-5.61,0h-.85s-.14-.84-.14-.84c0,0-.82-4.93-.82-4.93,0,0,.12,.33,.12,.33-1.11-1.94-1.82-4.13-1.99-6.39-.16-2.26,.22-4.55,1.11-6.62,0,0-.08,.33-.08,.33,.55-8.92-.84-17.95-4.04-26.29l-.14-.37c.64-1.72,1.75-3.27,3.25-4.36,1.38-1.02,3.03-1.63,4.73-1.77l-.83,1.4c-1.64-3.71-2.09-7.92-1.33-11.89l.16-.82h.83s25.3,0,25.3,0c0,0-.37,.07-.37,.07,2.58-1.03,5.25-1.82,7.97-2.35,8.15-1.56,17.11-1.25,24.35,3.24,0,0-.52-.14-.52-.14l24.65-.21s.81,0,.81,0l.18,.8c.85,3.85,.35,8.05-1.53,11.56,0,0-.53-1.4-.53-1.4,3.78,1.4,7.14,3.85,9.69,6.96-2.25,4.18-4.06,8.6-5.15,13.21-1.07,4.31-1.63,8.94-1.61,13.4,0,0-.12-.4-.12-.4,1.35,2.39,1.92,5.19,1.37,7.89-.55,2.72-2.28,5.11-4.6,6.58,0,0-.14,0-.14,0l-5.14-.11,.37-.38s-.17,14.8-.17,14.8h0Z"/>
        </g>
        <line class="cls-8" x1="377.25" y1="316.58" x2="382.59" y2="312.98"/>
        <line class="cls-8" x1="382.8" y1="286.07" x2="382.8" y2="312.98"/>
        <line class="cls-8" x1="458.51" y1="315.96" x2="453.83" y2="311.29"/>
        <line class="cls-8" x1="453.37" y1="286.07" x2="453.83" y2="311.29"/>
        <line class="cls-8" x1="382.8" y1="286.07" x2="418.75" y2="280.01"/>
        <line class="cls-8" x1="453.37" y1="286.07" x2="418.75" y2="280.01"/>
        <line class="cls-8" x1="418.75" y1="268.38" x2="419.37" y2="297.47"/>
        <g>
          <line class="cls-12" x1="434.67" y1="292.95" x2="418.75" y2="286.89"/>
          <path class="cls-15" d="M434.64,293.04c-2.39-.61-5.81-1.65-8.21-2.38-2.82-.71-5.48-1.68-7.71-3.68,0,0,.07-.19,.07-.19,3-.01,5.63,1.03,8.21,2.38,2.28,1.05,5.5,2.55,7.71,3.68,0,0-.07,.19-.07,.19h0Z"/>
        </g>
        <g>
          <line class="cls-12" x1="402.21" y1="291.72" x2="418.75" y2="286.89"/>
          <path class="cls-15" d="M402.19,291.62c2.3-.96,5.69-2.21,8.07-3.09,2.71-1.15,5.44-1.99,8.47-1.74,0,0,.06,.19,.06,.19-2.42,1.83-5.17,2.59-8.07,3.09-2.48,.55-5.99,1.31-8.47,1.74,0,0-.06-.19-.06-.19h0Z"/>
        </g>
        <g>
          <line class="cls-12" x1="432.93" y1="298.68" x2="418.75" y2="292.54"/>
          <path class="cls-15" d="M432.89,298.77c-2.15-.63-5.22-1.68-7.37-2.43-2.55-.73-4.91-1.72-6.81-3.71,0,0,.08-.18,.08-.18,2.75,.02,5.09,1.07,7.37,2.43,2.02,1.06,4.87,2.57,6.81,3.71,0,0-.08,.18-.08,.18h0Z"/>
        </g>
        <g>
          <line class="cls-12" x1="403.55" y1="298.09" x2="418.75" y2="292.54"/>
          <path class="cls-15" d="M403.51,297.99c2.1-1.06,5.19-2.46,7.36-3.43,2.47-1.26,4.98-2.22,7.84-2.12,0,0,.07,.19,.07,.19-2.13,1.93-4.66,2.81-7.36,3.43-2.3,.66-5.54,1.57-7.84,2.12,0,0-.07-.19-.07-.19h0Z"/>
        </g>
        <path class="cls-6" d="M361.71,346.32c.08-7.09,.27-12.87,.41-16.57-1.51-1.78-3.01-3.56-4.52-5.34-3.74-.09-7.49-.18-11.23-.27h-37.12v69.58c38.86,5.6,48.12-3.12,50.95-7.95,3.15-5.37,1.18-10.74,1.51-39.45Z"/>
        <polygon class="cls-15" points="355.73 349.74 357.73 340.98 359.73 349.74 355.73 349.74 355.73 349.74"/>
        <polygon class="cls-15" points="359.73 325.78 357.73 338.79 355.73 325.78 359.73 325.78 359.73 325.78"/>
        <path class="cls-7" d="M343.9,322.63c-.2-1.99,.03-3.66,.27-4.79-1.13,.18-2.67,.22-4.11-.55-1.33-.72-1.32-1.46-2.6-2.05-1.61-.75-3.66-.51-5.2,.41-1.4,.84-2.07,2.05-2.33,2.6-1.92,.05-3.84,.09-5.75,.14,.3,1.22,.5,2.97-.27,4.66-.81,1.76-2.18,2.33-2.05,3.42,.14,1.27,2.18,1.95,3.42,2.47,2.31,.96,5.35,2.81,8.49,6.71,.96-.77,1.92-1.55,2.88-2.33,2.76-2.24,5.5-4.47,8.22-6.71-.38-.98-.79-2.33-.96-3.97Z"/>
        <polygon class="cls-15" points="344.01 325.47 334.24 323.47 344.01 321.47 344.01 325.47 344.01 325.47"/>
        <polygon class="cls-15" points="317.95 322.13 333.63 324.13 317.95 326.13 317.95 322.13 317.95 322.13"/>
        <path class="cls-6" d="M526.61,390.74v-62.74h-48.21c-1.6,1.78-3.19,3.57-4.79,5.35v48.76c17.67,2.88,35.34,5.75,53.01,8.63Z"/>
        <path class="cls-15" d="M478.4,328.01c.42,1.44,.71,2.88,1.01,4.32v4.32s-.01,8.63-.01,8.63v12.95c-.3,1.44-.6,2.88-1,4.32-.4-1.44-.7-2.88-1-4.32v-25.89c.29-1.44,.58-2.88,1-4.32,0,0-.42,1.44,0,0Z"/>
        <g>
          <path class="cls-12" d="M254.19,459.63c-.6-1.55-1.46-4.03-2.05-7.19-.79-4.25-.36-5.76-1.03-11.71-.81-7.2-1.89-8.9-2.67-9.86-1.62-2-3.71-2.99-5.14-3.49-.11-3.15-.37-5.81-.62-7.81-.78-6.35-1.68-8.04-2.67-9.25-1.46-1.78-3.12-2.51-3.49-2.67-1.07-.45-1.96-.46-5.48-.48-1.3,0-2.82,0-4.52,0-1.64-1.37-3.29-2.74-4.93-4.11,.08-.81,.05-1.99-.55-3.15-1.87-3.61-7.45-3.31-7.81-3.29-4.99,.34-7.83,4.6-8.22,5.2-1.37,.14-2.74,.27-4.11,.41,.46,1.63,.87,3.74,0,4.33-.48,.33-1.18,.07-1.39,0-1.5-.51-5.55-.78-15.98,0v82.25c37.94,15.69,68.65,13.26,75.99-.16,1.06-1.95,5.21-10.67-5.34-29.04Z"/>
          <path class="cls-15" d="M254.19,459.63c-2.41-5.53-2.8-11.66-3.59-17.53-.68-3.37-1.1-7.23-3.08-10.05-1.24-1.44-2.99-2.4-4.84-2.94,0,0-1.09-.32-1.09-.32,0,0-.14-1.35-.14-1.35l-.81-7.8c-.51-3.4-.57-7.28-3.61-9.39-.84-.6-1.6-1-2.64-1.02-2.43-.13-6.09-.03-8.61-.06-.98-.81-5.34-4.45-6.3-5.25,.73-3.88-1.68-5.09-5.29-5.31-3.06-.18-5.86,1.81-7.51,4.29,0,0-.54,.81-.54,.81,0,0-.94,.09-.94,.09,0,0-4.11,.41-4.11,.41l1.73-2.53c.6,2.08,1.43,5.91-1.62,6.91-.94,.24-1.47,.11-2.19-.1-4.95-.96-10.24-.17-15.33,.05,0,0,1.85-1.99,1.85-1.99v82.25s-1.24-1.85-1.24-1.85c12.72,5.21,26.05,9.16,39.75,10.38,11.1,1.03,30.2,.15,35.23-11.61,2.9-8.59-.78-18.44-5.1-26.11h0Zm0,0c4.46,8.12,9.36,17.23,7.64,26.84-5.12,19.1-37.26,16.02-52.15,12.73-9.68-2.09-19.06-5.23-28.14-9.04,0,0,0-1.34,0-1.34v-84.11l1.85-.13c3.69-.26,7.37-.5,11.15-.49,1.92,.04,3.92,.04,5.81,.65,.03,.01-.03-.03-.26,.03-.23,.05-.56,.31-.63,.48-.13,.29-.01,.05-.05-.24-.07-1.17-.73-3.29-1.08-4.53,1.42-.14,5.01-.51,6.48-.65,0,0-1.48,.91-1.48,.91,2.18-3.31,5.73-5.84,9.77-6.12,5.18-.38,11.16,2.49,10.48,8.62,0,0-.71-1.72-.71-1.72l4.93,4.11-1.29-.46c2.94,.1,6.42-.2,9.39,.21,4.48,.95,7.54,5.33,8.1,9.64,.79,4.08,1.27,8.14,1.14,12.28,0,0-1.23-1.67-1.23-1.67,7.68,3.01,7.71,9.31,7.97,16.34,.13,3-.14,6,.18,8.98,.31,2.96,1.07,5.88,2.13,8.67h0Z"/>
        </g>
        <g>
          <path class="cls-12" d="M221.42,403.54c-6.64-.41-13.29-.82-19.93-1.23v4.3c-2.38,.19-4.21,.75-5.44,1.24-1.82,.73-2.11,1.19-2.16,1.54-.16,1.13,1.94,2.2,2.05,2.26,2.25,1.12,4.69,.25,5.55-.1,.63,1.16,1.46,2.5,2.57,3.9,1.03,1.29,2.06,2.35,2.98,3.18,.82-.13,1.87-.42,2.98-1.03,2.92-1.62,4.07-4.38,4.42-5.34,.27,.63,.85,1.78,2.05,2.77,1.74,1.43,3.64,1.61,4.31,1.64,.72-.35,1.21-.77,1.54-1.13,2.16-2.34,1.25-5.94,1.13-6.37-.68-1.88-1.37-3.77-2.05-5.65Z"/>
          <path class="cls-15" d="M221.42,403.54l-10.3,.3c-2.77-.05-6.89-.39-9.69-.53,0,0,1.06-1,1.06-1,0,.7,0,4.63,0,5.22,0,0-.92,.07-.92,.07-2.27,.22-4.69,.72-6.62,1.92-.08,.06-.12,.12-.09,.08,.03-.06,.03-.1,.03-.09,1.35,1.95,4.13,2.03,6.22,1.11,0,0,.83-.34,.83-.34,1.45,2.85,3.38,5.47,5.76,7.61,0,0-.83-.25-.83-.25,1.51-.24,2.94-.91,4.07-1.92,1.81-1.46,2.67-4.05,3.42-6.19,0,0,.99,2.34,.99,2.34,.9,2.21,3.11,3.72,5.49,3.81,0,0-.48,.1-.48,.1,2.31-1.15,2.86-4.01,2.52-6.44-.4-1.57-.93-3.82-1.46-5.81h0Zm0,0s2.63,5.44,2.63,5.44c.26,.76,.44,1.53,.51,2.34,.42,2.62-1.07,5.37-3.55,6.38-3.2-.03-6.3-2.05-7.5-5.04,0,0,1.86-.05,1.86-.05-1.28,3.71-4.69,6.68-8.65,7.09,0,0-.36-.32-.36-.32-2.32-2.1-4.27-4.6-5.76-7.35,0,0,1.26,.45,1.26,.45-2.57,1.16-6.06,.99-8.14-1.18-2.49-2.69,.95-4.14,3.22-4.83,1.45-.46,2.95-.74,4.46-.86,0,0-.92,1-.92,1,0-.76,0-4.69,0-5.37,.6,.05,5.45,.34,6.18,.39,4.9,.16,10.07,1.14,14.74,1.9h0Z"/>
        </g>
        <g>
          <path class="cls-12" d="M235.8,428.51c-3.63,3.01-7.26,6.03-10.89,9.04-1.02-1.21-2.27-2.52-3.8-3.8-3.69-3.09-7.44-4.74-10.17-5.65,.47-1.18,.92-2.44,1.34-3.8,.92-3.03,1.45-5.85,1.75-8.32,5.58,.45,11.16,.89,16.74,1.34v8.12c.52-.01,1.45,.03,2.47,.51,1.61,.76,2.35,2.11,2.57,2.57Z"/>
          <path class="cls-15" d="M235.8,428.51c-1.83,1.79-5.46,5.88-7.41,7.44-.55,.45-3.11,2.59-3.61,3.01-3.62-4.6-8.59-8.08-14.16-9.91,0,0-.96-.32-.96-.32l.35-1c1.57-4.09,2.72-8.47,3.13-12.82,0,0,.96,.08,.96,.08l16.74,1.34,.92,.07c-.05,2.34,.14,4.69-.1,7.01,0,0-.2,2.03-.2,2.03l-.72-.69c2.28,.09,4.36,1.67,5.05,3.77h0Zm0,0c-1.21-1.93-3.51-2.79-5.65-2.3,0,0-.08-.78-.08-.78-.37-2.67-.32-5.44-.3-8.12,0,0,.92,1,.92,1l-16.74-1.34,1.07-.88c-.45,4.19-1.65,8.43-3.15,12.37,0,0-.61-1.32-.61-1.32,5.57,1.84,10.65,5.23,14.42,9.76l-1.4-.13c2.92-2.69,8.19-6.01,11.53-8.27h0Z"/>
        </g>
        <path class="cls-15" d="M245.25,428.61c-.39,.83-.79,1.42-1.18,2.02-.39-.04-.79-.01-1.18-.02-1.18,0-3.55,0-4.73,0,0,0-1.18,0-1.18,0-.39-.61-.79-1.2-1.18-2,.39-.8,.79-1.39,1.18-2h1.18c1.18,0,3.55,0,4.73,0,.39,0,.79,.02,1.18-.02,.39,.6,.79,1.19,1.18,2.02h0Z"/>
        <g>
          <line class="cls-12" x1="212.55" y1="424.15" x2="192.35" y2="422.4"/>
          <path class="cls-15" d="M212.55,424.15c-.91,.76-1.81,1.27-2.7,1.79-.84-.11-1.68-.16-2.52-.24-2.52-.22-7.58-.66-10.1-.88,0,0-2.52-.22-2.52-.22-.79-.68-1.58-1.34-2.35-2.21,.91-.73,1.8-1.24,2.7-1.77l2.52,.22c2.52,.22,7.58,.66,10.1,.88,.84,.06,1.68,.17,2.53,.2,.79,.67,1.58,1.33,2.35,2.23h0Z"/>
        </g>
        <g>
          <line class="cls-12" x1="253.52" y1="458.42" x2="203.5" y2="451.27"/>
          <path class="cls-15" d="M253.52,458.42c-2.2,.53-4.37,.81-6.54,1.11-2.08-.34-4.17-.61-6.25-.91l-12.51-1.79c-4.12-.59-14.77-2.11-18.76-2.68-2-.9-4-1.78-5.97-2.87,2.2-.5,4.37-.78,6.54-1.09,3.94,.56,14.68,2.1,18.76,2.68,0,0,12.51,1.79,12.51,1.79,2.09,.29,4.17,.62,6.26,.87,2,.89,4,1.77,5.97,2.89h0Z"/>
        </g>
        <g>
          <path class="cls-9" d="M207.14,466.92c.15-1.46,.2-3.17,0-5.07-.51-4.93-2.43-8.67-3.84-10.89-.65,.11-1.87,.4-3.08,1.3-1.58,1.16-2.23,2.66-2.47,3.29-.57-6.89-.65-12.33-.62-16.09,.03-2.51,.12-6.23-1.3-10.82-.89-2.87-1.88-6.06-3.56-6.23-3.01-.32-6.41,9.18-8.35,14.59-1.56,4.35-2.51,8.04-3.08,10.55-.54-.1-1.55-.19-2.6,.27-1.36,.6-1.98,1.78-2.47,2.74-1.31,2.58-1.16,5.21-.96,6.64-.29,.29-.75,.74-1.3,1.3-1.06,1.08-1.89,1.95-1.99,2.05-1.46,1.58-1.48,6.5-1.37,9.45-.32,.38-.84,.9-1.58,1.37-1.69,1.07-3.04,.84-4.31,1.3-.56,.2-1.84,.79-3.7,4.45-2.22,4.36-3.15,8.93-3.56,12.26,.29-1,.67-2.88-.07-4.86-.55-1.48-1.31-1.81-3.49-3.97-3.18-3.15-3.6-4.84-6.81-6.06-1.2-.46-2.1-.47-2.74-.48-1.02,0-2.02-.02-2.5,.62-.11,.14-.27,.42-.17,2.26,.04,.82,.11,1.49,.17,1.95-.07,4.7-.14,9.4-.21,14.11,33.04,14.78,61.03,11.35,68.21-1.58,1.09-1.96,4.67-9.48-2.26-24.45Z"/>
          <path class="cls-15" d="M207.14,466.92c.22-5.6-1.58-11.05-4.72-15.4l1.06,.47c-1.05,.25-2.01,.78-2.76,1.48-.75,.7-1.3,1.62-1.59,2.58l-1.91,6.33s-.9-6.72-.9-6.72c-.51-3.93-.98-7.89-1.19-11.86-.11-3.79,.31-7.82-.42-11.44-.43-2.28-1.24-4.93-2.14-6.98-.22-.48-.51-.89-.65-1.01-.07-.07-.04-.02,.1,.02,.13,.03,.28-.02,.24,0-.57,.29-1.27,1.38-1.7,2.07-2.43,4.27-4.13,9.42-5.74,14.12-.98,3.02-1.77,6.17-2.45,9.27,0,0-1.88-.33-1.88-.33-1.68-.2-2.19,.45-3,2.09-.93,1.84-.95,4.19-.55,6.31-1.33,1.31-2.67,2.67-3.94,4.01-1.12,2.33-.84,5.39-.84,8.01,0,0,.03,.78,.03,.78-1.02,1.27-2.22,2.37-3.8,3.01-1.73,.76-2.94,.38-3.88,1.13-3.44,4.01-4.75,9.56-5.51,14.78,0,0-3.9-.8-3.9-.8,.27-.93,.36-1.87,.21-2.73-.18-.95-.33-1.33-1.08-2.06-1.7-1.53-3.72-3.59-5.18-5.37-1.57-2-3.88-2.93-6.25-2.61-.12,.02-.11,.05,.05-.06,.04-.03,.07-.07,.11-.1,.06-.06,.15-.23,.2-.32,.11-.27,.06-.2,.06-.15-.11,.78,.13,2.49,.18,3.37,0,.08-.21,14.11-.21,14.2,0,0-1.18-1.85-1.18-1.85,7.39,3.29,15.08,5.93,22.95,7.62,13.02,2.89,35.31,3.95,43.48-8.67,3.61-7.23,1.39-15.87-1.3-23.15h0Zm0,0c10.69,19.38,4.95,34.48-17.86,37.25-16.8,1.91-33.66-2.7-48.91-9.4,0,0-1.2-.54-1.2-.54l.02-1.32,.21-14.11v.27c-.1-1.36-.28-2.65-.16-4.11-.03-.24,.21-1.09,.51-1.48,1.13-1.57,3.01-1.52,4.61-1.48,1.5,.02,3.04,.52,4.35,1.21,2.54,1.31,3.87,3.62,5.71,5.44,1.32,1.48,3.07,2.51,4.11,4.46,1.04,2.14,1.05,4.64,.41,6.8,0,0-3.91-.8-3.91-.8,.55-4.37,1.67-8.73,3.69-12.78,1.14-2.19,2.65-4.97,5.27-5.69,2.42-.55,3.21-.36,4.64-1.96,0,0-.48,1.38-.48,1.38,0-3.52-.39-7.34,1.61-10.53,1.13-1.32,2.43-2.55,3.64-3.78,0,0-.58,1.71-.58,1.71-.36-2.49-.12-5.19,1.05-7.62,1.12-2.91,4.17-4.99,7.3-4.29,0,0-2.3,1.53-2.3,1.53,1.16-5.21,2.89-10.3,4.8-15.26,.98-2.49,1.98-4.97,3.44-7.44,.96-1.48,1.66-2.73,3.52-3.67,4.27-1.75,6.1,3.93,6.96,6.89,2.15,6.45,1.49,13.4,1.52,20.02-.03,2.6,0,5.2,.08,7.8,0,0-2.82-.39-2.82-.39,1.22-3.04,4.27-5.07,7.49-5.2,3.02,5.11,4.3,11.26,3.26,17.07h0Z"/>
        </g>
        <g>
          <path class="cls-12" d="M544.69,435.99c-.34-16.3-.68-32.6-1.03-48.9,.05-.22,.33-1.49-.46-2.72-.45-.69-1.23-1.36-2.05-1.49-1.59-.24-3.68,1.48-4.37,4.47-3.31,.03-5.59,.87-7.09,1.66-1.79,.95-2.42,1.82-4.11,2.05-.72,.1-2.14,.16-5.34-1.51-3.7-1.93-3.96-3.57-6.92-5.07-1.21-.61-3.11-1.33-5.82-1.44-.17-1.17-.49-2.51-1.1-3.9-2.37-5.46-7.36-7.91-9.18-8.7-.87,.42-2.77,1.48-4.25,3.7-1.54,2.31-1.75,4.59-1.78,5.55,0,.26,.03-4.21-.14-6.85-.87-13.85-16.67-23.45-19.45-25.13-2.89-1.76-5.63-3.38-9.72-4.04-6.6-1.06-12.03,1.17-14.52,2.4-.19-3.45-.39-6.89-.58-10.34-.21-1.19-.54-2.81-1.03-4.73-1.95-7.61-4.84-13.14-6.16-15.51-4.01-7.18-6.2-11.33-11.2-14.59-2.03-1.32-5.46-3.55-10.07-3.39-4.9,.17-8.32,2.95-11.3,5.44-5.28,4.42-7.81,9.3-10.48,14.59-1.98,3.91-4.49,9.73-6.27,17.26-.58,3.63-1.16,7.26-1.75,10.89-2.36-.75-4.73-1.51-7.09-2.26-5.43-.5-9.61,.38-12.12,1.13-11.42,3.39-20.75,13.39-23.01,24.86-.7,3.54-.59,6.54-.41,8.42-.42-.88-.98-1.87-1.75-2.88-1.93-2.55-4.21-4.02-5.75-4.83-1.37,.67-3.12,1.73-4.83,3.39-3.56,3.47-4.79,7.51-5.24,9.45-.93-.1-2.33-.14-3.9,.31-3.43,.97-3.79,3.14-7.4,5.24-1.36,.79-5.46,3.18-9.04,1.85-1.89-.7-2.08-1.86-4.42-2.36-2.19-.47-3.23,.29-4.42-.62-1.17-.89-.57-1.94-1.85-3.29-1.17-1.23-3.32-2.09-4.62-1.23-.72,.47-.95,1.33-1.03,1.64-.93,3.8-.15,43.4,0,50.85,4.22,4.79,9.7,9.06,16.54,9.96,5.31,.7,9.49-.9,10.48-1.23,23.85-8.09,157.09,47.93,211.2,8.12,3.52-2.59,9.33-7.52,14.79-16.23Z"/>
          <path class="cls-15" d="M544.69,435.99c-.63-12.2-1.59-36.68-2.12-48.87,0,0,0-.1,0-.1,0,0,.03-.17,.03-.17,.32-1.18-.66-2.87-1.93-2.75-1.82,.46-2.49,2.87-2.81,4.56-2.83,0-5.73,.5-8.03,1.99-1.16,.78-2.62,1.88-4.19,2-4.45,.31-8.7-2.93-11.73-5.64-2.17-1.67-5.32-2.07-8.12-2-.47-5.82-4-10.42-9.37-12.72,0,0,1.67-.04,1.67-.04-2.86,1.34-4.81,4.34-4.9,7.49,0,0,0,.13,0,.13-7.03,2.34-2.71-.99-3.98,0v-.2c.01-1.37-.04-3.76-.07-5.14-.03-10.12-7.99-17.96-15.86-23.38-2.49-1.63-5.22-3.41-7.97-4.5-5.49-2.13-11.8-1.41-17.05,1.21,0,0-2.71,1.33-2.71,1.33,0,0-.17-3.01-.17-3.01l-.58-10.34s.03,.24,.03,.24c-.8-3.91-1.78-7.98-3.27-11.69-1.4-3.79-3.4-7.46-5.4-10.97-2.04-3.61-4.08-7.07-6.97-9.46-2.84-2.27-6.37-4.38-10.06-4.45-3.84-.12-7.02,1.82-9.96,4.29-4.86,3.73-7.97,8.83-10.63,14.29-2.73,5.2-5.04,11.86-6.26,17.03-.33,1.79-1.84,11.68-2.11,13.18-1.64-.55-7.59-2.4-9.3-2.97-16.62-1.65-34.71,13.27-32.94,32.32,0,0,1.09,11.41,1.09,11.41l-4.89-10.36c-1.37-2.91-3.73-5.3-6.62-6.79,0,0,1.8,.02,1.8,.02-4.59,2.19-7.88,6.55-9,11.49,0,0-.4,1.73-.4,1.73,0,0-1.76-.19-1.76-.19-1.52-.17-3.19,.06-4.47,.8-1.41,.87-2.78,2.63-4.33,3.67-1.82,1.25-3.71,2.24-5.87,2.87-2.31,.67-5.01,.71-7.24-.57-.97-.51-1.45-1.16-2.26-1.52-1.1-.53-2.29-.3-3.68-.36-1.68-.03-3.51-1.52-3.85-3.19-.16-.57-.21-.71-.32-.89-.3-.55-1.6-1.37-2.3-1.22-.43,.99-.33,2.63-.43,3.89-.37,15.55,.05,31.3,.31,46.89,0,0-.5-1.28-.5-1.28,6.37,7.51,15.42,11.78,24.92,8.14,1.12-.33,2.36-.62,3.49-.71,11.5-.76,22.68,2.19,33.84,4.31,43.52,9.28,87.24,20.95,132.03,18.84,22.61-1.38,44.52-8.66,57.23-28.64h0Zm0,0c-32.72,56.57-138.57,24.09-190.08,13.71-8.16-1.69-16.32-3.38-24.58-4.17-3.66-.27-7.21-.53-10.65,.45-7.5,2.89-16.32,1.51-22.7-3.31-2.64-1.89-4.9-4.13-6.98-6.53,0,0-.01-.73-.01-.73-.26-15.74-.68-31.34-.3-47.13,.19-2.45-.18-5.48,2.29-7.12,3.37-1.92,7.81,.86,8.59,4.34,.14,.39,.05,.2,.12,.28,.13,.08,0,.04,.21,.07,1.51-.05,3.47-.04,4.99,.69,.96,.4,1.91,1.25,2.63,1.71,1.07,.61,2.6,.66,4.18,.19,1.61-.46,3.23-1.32,4.63-2.28,1.69-1.15,2.68-2.74,4.65-3.87,2.22-1.24,4.6-1.54,6.9-1.31l-2.16,1.54c1.41-6.41,5.99-12.04,12.04-14.63,0,0,.9,.46,.9,.46,3.59,1.85,6.64,4.92,8.38,8.62,0,0-3.8,1.05-3.8,1.05-2.2-20.55,17.85-39.32,38.14-36.51,0,0,7.09,2.26,7.09,2.26l-2.58,1.59s1.75-10.89,1.75-10.89c1.46-6.3,3.7-12.45,6.64-18.2,3.72-7.93,9.27-15.28,17.3-19.3,6.62-3.29,14.19-.62,19.49,3.91,3.47,2.86,5.75,6.78,7.89,10.56,2.1,3.68,4.19,7.53,5.65,11.5,1.58,3.94,2.64,8.26,3.48,12.42,0,0,.02,.09,.02,.09,0,0,0,.15,0,.15,0,0,.58,10.34,.58,10.34l-2.88-1.68c10.59-5.12,19.75-3.13,29.04,3.57,8.2,5.68,16.25,13.56,17.42,24.02,.3,2.33,.2,5.08,.25,7.42,0,0,0,.3,0,.3,0,0,0,.07,0,.07,0,0,0,.01,0,.01,0-.02,0,.08,0-.14-1.27,1,3.05-2.33-3.98,0-.06-4,3.02-9.05,7.15-10.87,0,0,.82-.4,.82-.4,6.16,2.3,11.58,7.74,12.29,14.53,0,0-1.89-1.71-1.89-1.71,2.99,.18,6.06,1.06,8.57,3.06,2.25,2,3.46,3.42,6.1,4.55,1.09,.51,2.27,.91,3.04,.83,1.17-.1,1.9-.81,3.01-1.43,2.6-1.52,5.62-2.1,8.47-2.06l-1.29,1.04c.29-1.14,.78-2.25,1.53-3.23,3.58-4.68,8.63-.8,7.75,3.25-.03,12.18,.04,36.74-.06,48.92h0Z"/>
        </g>
        <g>
          <path class="cls-12" d="M654.54,441.56c-.64-10.59-1.28-21.18-1.92-31.78h-11.37c-.6-.34-1.46-.84-2.47-1.51-2.21-1.46-2.7-2.08-2.88-2.33-.36-.5-.88-1.38-1.1-2.74h-3.44c-.45-.78-1.25-1.96-2.59-3.01-.42-.33-2.9-2.22-6.16-2.19-3.56,.04-6.92,2.35-8.77,5.89-1.14,1.23-2.28,2.47-3.42,3.7h-12.19c-.48,.64-.93,1.33-1.37,2.05-4.04,6.8-3.94,14.19-3.29,19.04h-3.57c-.77,.75-1.87,2.01-2.73,3.84-1.07,2.28-1.18,4.3-1.23,5.07-.25,3.96-1.41,19.63-2.88,41.09,8.31,5.71,16.62,11.41,24.93,17.12,15.48-18.08,30.95-36.16,46.43-54.24Z"/>
          <path class="cls-15" d="M654.54,441.56c-1.01-7.89-2.9-23.77-3.81-31.66,0,0,1.9,1.78,1.9,1.78-3.97,.28-7.95,.05-11.93,.1-1.93-1.19-4.09-2.37-5.77-3.94-1.15-1.1-1.85-2.81-2.08-4.32,0,0,1.98,1.69,1.98,1.69-.89-.02-3.78,.01-4.59,0-3.16-6.6-11.16-7.01-14.59-.39,0,0-.13,.24-.13,.24l-.18,.19-3.42,3.7s-.59,.64-.59,.64h-13.07s1.61-.81,1.61-.81c-1.99,2.77-3.41,5.9-4.05,9.27-.86,4.08-.57,8.47,.08,12.63-1.4,0-4.44,0-5.86,0,0,0,1.4-.57,1.4-.57-1.29,1.26-2.28,2.85-2.82,4.56-.62,1.57-.55,4.17-.73,5.84,0,0-.89,12.77-.89,12.77l-1.79,25.53-.86-1.79s24.93,17.12,24.93,17.12l-2.65,.35c6.75-8.04,16.35-18.91,22.96-26.83,7.12-7.5,17.65-18.56,25-26.11h0Zm0,0c-7.05,9.39-14.18,18.8-21.44,28.13-6.85,7.98-16.57,19.3-23.48,27.41,0,0-1.17,1.37-1.17,1.37l-1.48-1.02s-24.93-17.12-24.93-17.12c0,0-.94-.65-.94-.65l.08-1.14,1.79-25.51s.89-12.76,.89-12.76c0,0,.22-3.22,.22-3.22,.25-3.95,2.17-7.74,5.12-10.37,.46,0,3.84,0,4.39,0,0,0-1.98,2.27-1.98,2.27-1.21-8.13,.48-16.75,5.56-23.36,0,0,1.08,0,1.08,0h12.19l-1.47,.64,3.42-3.7-.31,.43c.98-1.86,2.36-3.53,4.11-4.79,5.44-4.22,13.75-1.83,16.92,4.04,0,0-1.74-1.01-1.74-1.01,0,0,3.43,0,3.43,0h1.7c.25,1.66,.36,3.43,1.93,4.39,1.02,.75,2.66,1.79,3.79,2.45,0,0-.98-.26-.98-.26,1.89,0,3.79,0,5.68-.03,2.5-.09,5.07,.11,7.57,.23,.16,10.06,.06,23.44,.03,33.58h0Z"/>
        </g>
        <g>
          <path class="cls-9" d="M693.59,474.95c-1.53,.06-3.41,.36-5.36,1.26-7.02,3.24-8.68,11.42-8.9,12.6,.15-.48,.99-3.22-.55-5.89-.92-1.6-2.24-2.41-2.88-2.74-.27-2.01-.55-4.02-.82-6.03-.97-.19-2.03-.45-3.15-.82-2.27-.75-4.15-1.7-5.62-2.6-.23-2.97-.46-5.94-.68-8.9-1.19-1.19-2.37-2.37-3.56-3.56l-.68-8.49c-.07-1.42-.99-2.67-2.33-3.15-1.35-.49-2.87-.11-3.84,.96-.31-1.2-.95-3.68-1.78-6.85-2.07-7.92-3.02-11.41-5.75-14.93-1.1-1.43-2.45-3.12-3.84-2.88-1.78,.31-2.5,3.88-2.88,6.03-1.51,8.54-2.02,19.84-2.19,28.35,0-.16-.16-3.06-2.6-4.38-.28-.15-1.94-1.01-3.42-.41-2.43,.99-2.74,5.24-2.88,7.12-.19,2.62-1.51,27.61,15.34,36.16,5,2.53,9.54,2.56,18.63,2.6,12.54,.06,18.06,.29,22.74-2.88,1.87-1.27,3.17-2.63,3.97-3.56,1.01-5.67,2.02-11.34,3.03-17.01Z"/>
          <path class="cls-15" d="M693.59,474.95c-7.27,.56-12.11,7.31-12.9,14.11,0,0-2.69-.68-2.69-.68,.31-1.27,.23-2.76-.34-3.93-.65-1.46-2.03-2.37-3.48-2.9-.26-1.35-.54-2.75-.73-4.11,0,0-.37-3.02-.37-3.02l1.61,1.7c-3.68-.83-7.14-2.14-10.29-4.23-.03-.25-.72-9.39-.76-9.92,0,0,.58,1.26,.58,1.26-.33-.33-3.88-3.88-4.08-4.08,0,0-.06-.73-.06-.73l-.68-8.43c-.03-.46-.09-.61-.3-.94-.53-.79-1.77-.86-2.39-.13,0,0-2.47,2.82-2.47,2.82l-.95-3.66-2-7.69c-1.5-5.49-2.75-11.84-7.17-15.48,.06,.02,.24-.04,.26-.07-.26,.32-.53,.83-.73,1.47-2.38,10.08-2.5,20.69-2.85,31.04,0,0-4,.04-4,.04-.07-1.6-1.39-3.23-3.11-3.06-.8,.27-1.01,1.07-1.35,2.18-2,13.13,1.37,32.09,14.8,37.98,5.9,2.49,12.38,1.72,18.83,1.93,4.32,.06,8.74-.05,13-.19,4.25-.13,7.84-1.93,10.75-4.98,0,0-.25,.53-.25,.53,1.19-5.11,3.06-11.67,4.13-16.81h0Zm0,0c-.58,4.89-1.41,12.41-1.96,17.44-4.42,6.37-11.68,8.22-19.03,8.04,0,0-6.66-.02-6.66-.02-6.64-.18-13.98,.54-20.41-2.26-11.23-4.83-16.3-17.34-17.39-28.73-.41-4.65-.68-9.27,.32-13.9,.5-2.23,1.99-4.72,4.52-5.14,3.19-.51,6.37,1.61,7.36,4.65,.24,.72,.39,1.32,.45,2.2,0,0-4,.04-4,.04,.18-8.01,.52-16.05,1.53-24.03,.61-3.58,.64-7.21,2.62-10.5,3.81-5.05,8.44,1.39,10.31,4.9,1.92,3.71,2.84,7.83,3.91,11.74,0,0,2.01,7.71,2.01,7.71l-3.42-.84c2.69-3.13,8.15-2,9.36,1.95,.39,.84,.82,8.83,.96,9.91,0,0-.58-1.25-.58-1.25,.33,.32,3.88,3.88,4.08,4.08,0,0,.06,.74,.06,.74l.68,8.9-.95-1.55c2.88,1.88,6.21,2.73,9.51,3.52,.15,.92,.5,3.41,.65,4.35,.14,1,.22,2.02,.31,3.03,0,0-1.02-1.46-1.02-1.46,2.76,1.55,4.56,4.68,4.41,7.84-.04,1.01-.22,1.98-.57,2.94l-2.69-.68c1.66-7.24,7.75-14.08,15.63-13.6h0Z"/>
        </g>
        <g>
          <rect class="cls-12" x="344.86" y="622.28" width="48.89" height="14.77"/>
          <path class="cls-15" d="M393.75,637.06c-4.33,.37-13.11,1.85-17.38,1.76-10.44,.15-21.11,.24-31.51,.24,0,0-2,0-2,0,0-2.83,0-15.94,0-18.77,9.19,0,29.68,0,38.67,0,2.1,.02,7.12,0,9.17-.01,1.62-.14,3.49,.23,5.1,.36-.53,5.5-1.39,11.16-2.05,16.43h0Zm0,0c-.47-5.09-1.27-9.93-1.87-14.77,0,0,1.87,1.87,1.87,1.87-2.03,.31-4.07,.07-6.11,.13,0,0-6.11,0-6.11,0-7.78,0-28.63,0-36.67,0,0,0,2-2,2-2v14.77s-2-2-2-2c9.81,0,19.79,.08,29.6,.24,4.03-.05,15.04,1.46,19.29,1.76h0Z"/>
        </g>
        <g>
          <rect class="cls-12" x="442.04" y="620.16" width="48.9" height="16.18"/>
          <path class="cls-15" d="M490.93,636.34c-3.65,.43-7.43,.88-11.34,1.3-3.8,.63-8.18,.44-12.34,.55-8.41,.11-16.83,.15-25.21,.15h-2c-.03-.75,.02-16.98,0-18.18,0,0,0-2,0-2h2s48.9,.01,48.9,.01c0,0,2.2,0,2.2,0-.58,6.07-1.49,12.33-2.2,18.17h0Zm0,0c-.43-5.05-1.38-11.22-1.99-16.18,0,0,1.99,1.99,1.99,1.99h-48.9s2-1.99,2-1.99v16.18l-2-2c7.91,0,15.79,.05,23.68,.15,3.99,.1,7.75-.08,12.11,.55l13.11,1.3h0Z"/>
        </g>
        <g>
          <path class="cls-9" d="M593.9,478.88c.1-3.03-4.21-8.53-12.84-19.52-5.91-7.53-8.96-11.34-12.84-14.38-3.32-2.59-9.94-7.6-19.83-9.25-11.74-1.96-21.18,1.99-25.06,3.9-.83-.49-2.12-1.32-3.49-2.57-3.1-2.82-4.53-5.87-4.93-6.68-2.22-4.48-10.16-15.32-19.41-21.16-2.02-1.27-15.32-9.67-29.07-4.62-5.2,1.91-8.75,5.1-10.79,7.29-.07-5.03-.14-10.07-.21-15.1-1.46-7.25-4.33-17.24-10.38-27.94-8.85-15.66-20.24-25.3-27.32-30.41-7.22,5.73-18.41,16.22-26.61,32.67-4.62,9.26-7.02,17.88-8.32,24.65-.38,5.99-.75,11.98-1.13,17.98-1.16-1.97-3.17-4.76-6.47-6.99-8.45-5.71-18.67-3.22-21.78-2.47-15.6,3.8-25.57,17.76-33.49,28.87-1.49,2.09-2.65,3.86-3.39,5.03-.89,.13-2.33,.3-4.11,.31-6.41,.02-9.8-2.15-15.51-3.29,0,0-3.51-.7-10.48-.51-10.1,.27-29.11,18.26-46.64,46.53,6.54,5.68,16.7,13.83,30.13,21.95,78.93,47.68,161.19,27.79,284.07-1.92,5.78-1.4,39.47-9.8,39.89-22.39Z"/>
          <path class="cls-15" d="M593.9,478.88c-.41-3.79-3.34-6.77-5.39-9.82-5.84-7.38-11.41-15.13-18.17-21.7-12.96-11.76-30.76-14.44-46.31-6.3,0,0-.73,.37-.73,.37l-.77-.43c-3.34-1.86-6.19-4.64-8.2-7.9-1.69-3.15-3.49-5.92-5.74-8.68-8.19-10.64-20.14-19.86-34.08-19.37-6.66,.21-12.91,3.33-17.4,8.22,0,0-3.4,3.65-3.4,3.65-.03-3.48-.24-16.41-.27-20.09-1.89-9.42-6.76-22.54-12.98-31.7-6.3-9.75-14.47-18.27-23.89-25.06,0,0,2.41-.06,2.41-.06-17.52,13.5-30.4,35.12-34.17,55.88,0,0-1.13,17.98-1.13,17.98l-.41,6.49s-3.31-5.59-3.31-5.59c-1.62-2.75-3.82-5.13-6.51-6.73-8.44-5.1-19.57-2.9-27.91,1.52-10.35,5.7-17.68,15.91-24.43,25.47,0,0-2.86,4.25-2.86,4.25l-.52,.78c-2.05,.33-4.14,.52-6.22,.44-4.72,.04-11.6-2.6-14.57-3.27-3.83-.5-7.93-.79-11.76-.35-2.14,.42-4.13,1.41-6.06,2.54-5.28,3.19-10.01,7.58-14.42,12.17-8.82,9.31-16.38,19.83-23.17,30.71,0,0-.39-2.56-.39-2.56,29.32,25.61,65.85,43.12,104.58,48.05,19.33,2.56,38.99,2.46,58.41,.84,34.84-2.84,69.98-11.06,104.23-18.12,15.36-3.3,30.78-6.48,46.12-9.91,10.6-2.51,38.2-9.35,39.43-21.72h0Zm0,0c-.82,11.99-29.16,19.9-39.17,22.78-15.22,3.96-30.38,8.2-45.65,12-36.27,9.15-73.17,16.59-110.54,19.38-25.67,1.82-51.73,.56-76.75-5.8-31.37-8.04-60.35-24.25-84.58-45.6,7.19-11.64,15.14-22.84,24.58-32.81,6.36-6.36,13.45-13.62,22.63-15.89,2.65-.44,5.12-.24,7.75-.19,1.4,.06,3.03,.2,4.44,.39,2.44,.29,7.1,1.97,10.42,2.76,3.03,.7,6.16,.76,9.22,.31,0,0-1.4,.91-1.4,.91,3.9-5.81,7.97-11.7,12.49-17.05,4.57-5.4,9.81-10.52,16.26-14.04,12.96-7.16,31.61-7.69,39.79,6.69,0,0-3.72,.89-3.72,.89,0,0,1.13-17.98,1.13-17.98v-.13c2.2-11.5,6.45-22.62,12.58-32.6,6.33-10.41,14.67-19.53,24.28-26.98,10.32,7.24,19.29,16.41,26.14,27.01,6.62,10.21,11.25,21.69,13.62,33.63,0,0,0,.19,0,.19,0,0,.21,15.1,.21,15.1l-3.46-1.34c2.57-2.76,5.65-5.12,9.1-6.77,6.87-3.37,15.03-3.42,22.23-1.26,10.76,3.09,19.63,10.66,26.25,19.45,2.18,2.84,4.1,6.11,5.65,9.29,1.61,2.85,3.91,5.29,6.72,7.01,0,0-1.5-.05-1.5-.05,14.09-6.92,31.76-4.97,43.91,4.82,6.19,4.5,10.49,10.99,15.16,16.93,2.3,3.01,4.61,6,6.87,9.04,2.06,3.07,4.92,6.07,5.32,9.87h0Z"/>
        </g>
        <g>
          <rect class="cls-12" x="313.49" y="498.53" width="200.79" height="127.73"/>
          <path class="cls-15" d="M514.29,626.27c-57.71,1.8-144.26,2.14-202.79,2,0,0,0-2,0-2,0,0,0-127.73,0-127.73v-2s2,0,2,0c0,0,200.79,0,200.79,0,0,0,2,0,2,0,.51,37.43-1.19,91.94-2,129.73h0Zm0,0c-.82-40.73-2.36-87.08-2-127.73,0,0,2,2,2,2h-200.79s2-2,2-2v127.73s-2-2-2-2c58.31-.27,143.11,.35,200.79,2h0Z"/>
        </g>
        <g>
          <path class="cls-12" d="M699.66,585.73c-1.83-35.88-3.65-71.77-5.48-107.65-1.41,1.93-2.06,3.66-2.4,4.93-.53,2-.49,3.75-1.3,3.97-.6,.17-1-.69-1.99-1.03-2.07-.71-4.54,1.61-4.73,1.78-.79,.72-.98,1.25-1.92,1.71-.59,.3-1.14,.45-2.05,.48-1.82,.05-10.05,.05-21.3-.07-.39,0-.97-.01-1.64-.14-2.73-.5-4.77-2.3-6.78-4.79-2.47-3.07-3.13-4.99-5.27-8.83-2.39-4.29-4.11-4.88-5.2-8.15-.42-1.26-.56-2.13-1.3-3.49-1.26-2.29-3.03-3.76-4.38-4.66-1.28,.67-2.62,1.47-3.97,2.4-5.19,3.57-8.68,7.79-10.96,11.23-.7-.13-1.64-.27-2.74-.34-.24-.02-3.22-.21-6.3,.34-3.66,.66-6.14,2.13-8.63,3.36-3.53,1.75-7.08,2.79-14.18,4.86-2.83,.83-7.58,2.2-13.56,3.22-5.93,1.01-14.73,2.5-25.27,.89-5.68-.87-9.53-2.28-15.07-4.31-13.6-4.99-24.13-11.6-29.38-14.93-4.24-2.69-8.85-5.86-16.23-9.59-4.1-2.08-8.14-3.86-13.42-4.18-3.96-.24-7.39,.42-7.67,.48-1.95,.39-2.99,.81-9.38,2.81-1.61,.5-2.93,.91-3.77,1.16-.55-1.2-1.37-2.86-2.53-4.73-2.01-3.23-9.16-14.7-23.42-18.42-14.74-3.85-26.88,3.26-30.41,5.55-8.54,5.56-12.72,12.98-14.45,16.57-1.31-.12-3.14-.43-5.14-1.3-1.16-.51-1.94-1.01-2.19-1.16-2.87-1.77-9.01-2.39-15.41-1.23-1.27,.23-5.25,1.02-12.81,4.79-6.77,3.38-8.73,5.32-15.75,9.66-3.08,1.9-9.91,5.97-18.56,9.86-6.79,3.06-12.29,5.53-20.2,7.12-7.11,1.43-12.66,1.45-16.37,1.44-4.28-.01-14.02-.33-25.61-3.56-9.74-2.72-14.61-4.07-18.76-6.37-1.2-.66-3.94-2.25-7.88-2.81-3.26-.46-6.04-.03-7.88,.41-1.1-1.75-2.65-3.83-4.79-5.89-3.82-3.66-7.81-5.61-10.48-6.64-2.85,2.83-4.62,5.45-5.68,7.26-3.08,5.22-2.77,7.85-6.37,12.87-2.39,3.34-4.58,5.04-5.07,5.41-1.24,.95-4.17,3.12-8.42,3.84-1.71,.29-3.02,.23-3.77,.21-3.33-.12-8.32-.18-16.23,0-.36-.08-.89-.22-1.51-.48-2.33-.98-2.88-2.43-4.59-3.22-.77-.36-1.95-.66-3.7-.34-.34-1.01-.8-2.15-1.44-3.36-.97-1.84-2.06-3.29-3.01-4.38-1.73,35.47-3.47,70.95-5.2,106.42-1.16,.25-2.33,.5-3.49,.75-8.2,6.05-16.39,12.1-24.59,18.15,21.73,7.78,43.46,15.57,65.2,23.35h173.09c1.95-2.52,3.9-5.04,5.85-7.57-.1-22.33-.21-44.65-.31-66.98-1.81-2.29-3.63-4.59-5.44-6.88v-4.77h7.1c4.21-4.81,8.42-9.63,12.63-14.44h26.71c.41-1.49,1.13-3.62,2.46-5.96,4.06-7.13,11.63-12.39,20.03-13.56,1.37-.19,4.33-.58,7.91,.1,12.94,2.46,19.36,16.12,20.34,18.28h25c4.79,5,9.59,10,14.38,15h6.64v5.16c-1.76,2.32-3.52,4.64-5.27,6.96v65.61c1.99,2.78,3.97,5.57,5.96,8.35h174.36c21.14-7.12,42.28-14.24,63.41-21.37-9.36-6.39-18.72-12.78-28.08-19.18Z"/>
          <path class="cls-15" d="M699.66,585.73l-6.52-107.6,1.88,.56c-.96,1.33-1.69,2.8-2.12,4.34-.62,1.59-.21,5.57-3.06,5.03-.62-.16-1.24-.84-1.55-.96-1.53-.52-3.25,.98-4.27,2.11-.88,1.26-2.82,2-4.33,1.95,0,0-1.31,0-1.31,0-1.52,.01-6.25,.03-7.86,.04,0,0-10.49,.06-10.49,.06-1.95,.07-3.94,0-5.74-.86-5.13-2.58-7.82-7.88-10.38-12.66-1.26-2.42-2.73-4.14-4.39-6.29-1.71-2.12-1.69-5.01-3.28-7.07-.86-1.23-1.99-2.27-3.3-3.12l1.81,.09c-6.11,3.26-11.16,8.25-14.77,14.13,0,0-1.33-.15-1.33-.15-3.3-.49-6.84-.44-10.01,.46-3.4,.95-6.45,3.12-9.89,4.33-3.58,1.35-7.12,2.31-10.64,3.35-14.29,4.09-29.66,6.83-44.39,3.42-10.9-2.87-21.12-7.34-30.94-12.73-9.61-5.29-18.38-12.01-28.33-16.59-4.78-2.32-9.76-3.31-14.98-2.75-1.77,.16-3.29,.44-4.99,.99-1.24,.43-11.29,3.5-12.16,3.81-5.64-13.63-18.52-25.03-33.84-24.68-14.8,.09-28.84,9.75-34.69,23.33-2.5-.15-5.04-.61-7.35-1.68-1.61-.71-2.88-1.78-4.68-2.14-14.39-3.1-27.47,6.44-39.01,13.9-9.55,5.9-19.56,10.82-30.09,14.79-17.85,6.32-37.64,5-55.58-.28-5.36-1.56-10.99-2.92-16.04-5.61-4.81-2.96-10.54-3.61-15.94-1.98-3.36-5.87-8.71-10.54-15.06-12.95,0,0,2.13-.45,2.13-.45-3.41,3.39-6.08,7.34-7.75,11.86-1.73,5.04-4.73,9.71-8.82,13.25-3.66,3.12-8.51,5.19-13.41,5.08-.71-.02-1.29-.03-1.93-.02h-15s-.33,0-.33,0c-1.13-.35-2.27-.63-3.3-1.3-1-.6-1.83-1.42-2.4-1.92-1.14-.99-2.01-1.06-3.45-.84,0,0-1.7,.31-1.7,.31-.9-3.16-2.42-6.23-4.61-8.7,0,0,3.5-1.22,3.5-1.22,0,0-5.2,106.42-5.2,106.42l-.08,1.53s-1.5,.32-1.5,.32c0,0-3.49,.75-3.49,.75,0,0,.77-.35,.77-.35,0,0-24.59,18.15-24.59,18.15l-.51-3.49s65.2,23.35,65.2,23.35c-3.94-.11,173.53-.17,172.42-.12,0,0-1.58,.78-1.58,.78l5.85-7.57s-.42,1.23-.42,1.23c0,0-.31-66.98-.31-66.98l.43,1.23s-5.44-6.88-5.44-6.88c0,0-.43-.55-.43-.55v-5.46s0-2,0-2h2s7.1,0,7.1,0c0,0-1.51,.68-1.51,.68l12.63-14.44,.6-.68h27.62s-1.93,1.47-1.93,1.47c3.16-11.88,14.55-20.63,26.72-21.23,9.35-.73,18.01,4.8,23.25,12.16,1.76,2.39,3.28,4.93,4.53,7.65l-1.82-1.18h25.85l.59,.62,14.38,15s-1.44-.62-1.44-.62h6.64s2,0,2,0v2c0,.28,0,5.64,0,5.83,0,0-.41,.54-.41,.54,0,0-5.27,6.96-5.27,6.96,0,0,.41-1.21,.41-1.21v65.61l-.37-1.16s5.96,8.35,5.96,8.35c0,0-1.63-.84-1.63-.84,49.8-.12,124,.54,174.36,1.04-1.25,.49,63.43-20.89,63.3-20.73,0,0-.09,.62-.09,.62,0,0-27.88-19.46-27.88-19.46h0Zm0,0s28.27,18.89,28.27,18.89c0,0,.58,.39,.58,.39,0,0-.66,.23-.66,.23-.31,.05-63.22,22.06-63.52,22-51.16,.19-124.92,1.46-175.39,1.04-.63-.87-6.26-8.79-6.93-9.71,0,0,0-.64,0-.64v-66.28s.41-.54,.41-.54c0,0,5.27-6.96,5.27-6.96,0,0-.41,1.21-.41,1.21v-5.16l2,2c-.53,.01-7.28,0-7.5,0,0,0-.59-.62-.59-.62l-14.38-15,1.44,.62h-26.27c-2.32-5.25-5.68-10.29-10.11-13.86-12.82-10.87-33.46-1.9-37.44,13.52,0,0-.4,1.47-.4,1.47h-28.24l1.51-.68-12.63,14.44-.6,.68c-1.9,.02-6.3-.02-8,0,0,0,2-2,2-2,0,0,0,4.77,0,4.77,0,0-.43-1.24-.43-1.24,0,0,5.44,6.88,5.44,6.88,0,0,.43,.54,.43,.54v.69s.31,66.98,.31,66.98c0,0,0,.69,0,.69l-.42,.54s-5.85,7.57-5.85,7.57c0,0-.6,.78-.6,.78h-.98c-.29-.08-173.16,.06-173.44,0-.3-.11-65.2-23.35-65.52-23.47,0,0-3.53-1.26-3.53-1.26l3.02-2.23s24.59-18.15,24.59-18.15c0,0,.35-.26,.35-.26,0,0,.42-.09,.42-.09l3.49-.75s-1.58,1.86-1.58,1.86c0,0,5.2-106.42,5.2-106.42l.24-4.94c3.26,3.62,6.68,7.42,8.1,12.14,0,0-2.25-1.33-2.25-1.33,2.19-.52,5.2,.14,6.79,1.76,1.29,1.3,2.2,1.86,3.79,2.29-3.84-.14,16.31,0,14.75-.05,2.31,.06,4.58,.04,6.76-.75,4.39-1.44,7.88-4.78,10.44-8.62,1.33-1.95,2.19-3.98,3.1-6.39,1.83-4.93,4.89-9.55,8.65-13.24,0,0,.92-.92,.92-.92l1.21,.47c3.32,1.28,6.44,3.09,9.2,5.35,2.76,2.25,5.15,4.97,7.04,7.99,0,0-2.16-.88-2.16-.88,4.85-1.2,10.21-.76,14.79,1.37,2.51,1.23,4.69,2.54,7.36,3.43,20.19,7.01,42.94,10.96,63.59,3.53,13.72-5.08,26.48-12.2,38.59-20.44,6.55-3.87,13.49-7.51,21.07-8.69,5.21-.64,11.28-.83,16.03,2.15,1.77,.99,3.73,1.58,5.76,1.76,0,0-1.98,1.12-1.98,1.12,3.41-7.07,8.72-13.26,15.37-17.52,20.07-12.88,44.04-7,56.27,13.4,1.04,1.65,1.98,3.39,2.8,5.18l-2.41-1.08c3.76-1.04,12.37-4.31,16.27-4.43,5.78-.67,11.93,.57,17.04,3.1,10.1,4.63,18.93,11.39,28.58,16.72,9.42,5.18,19.55,9.62,29.91,12.33,14.02,3.22,28.66,.58,42.34-3.42,5.29-1.6,10.3-2.86,15.12-5.48,5.13-2.84,11.48-3.68,17.25-2.59,0,0-1.97,.84-1.97,.84,4.15-6.21,9.95-11.34,16.68-14.61,2.78,1.73,5.26,4.2,6.44,7.37,.66,1.76,.75,3.05,1.78,4.48,1.49,2.03,3.36,4.35,4.45,6.66,1.61,3.09,2.96,6.03,5.27,8.61,1.82,2.13,3.93,3.69,6.74,3.59,0,0,1.31,.02,1.31,.02,3.31,.05,14.64,.17,18.29,.22,0,0,1.31,.02,1.31,.02,.79,0,1.26-.09,1.9-.44,.24-.14,.41-.3,.71-.64,.6-.71,1.44-1.39,2.24-1.89,.85-.51,1.8-.99,3.02-1.04,.59-.02,1.26,.09,1.83,.38,.55,.27,1,.71,1.19,.83,.04,.03,.04,.02-.02,0-.07-.03-.21-.03-.3,0-.2,.06-.27,.2-.22,.13,.08-.14,.19-.54,.26-.94,.35-2.66,1.47-5.48,3.11-7.62,0,0,1.76-2.37,1.76-2.37,0,0,.12,2.93,.12,2.93,0,0,4.44,107.71,4.44,107.71h0Z"/>
        </g>
        <g>
          <line class="cls-12" x1="195.86" y1="604.41" x2="172.89" y2="626.95"/>
          <path class="cls-15" d="M195.86,604.41c-.37,1.53-.92,2.89-1.46,4.26-.98,.91-1.92,1.87-2.88,2.8l-5.74,5.64c-1.89,1.86-6.78,6.66-8.61,8.46-1.38,.51-2.75,1.02-4.27,1.39,.39-1.51,.94-2.87,1.47-4.25,1.81-1.78,6.74-6.62,8.61-8.46,0,0,5.74-5.64,5.74-5.64,.95-.95,1.93-1.86,2.86-2.83,1.37-.51,2.74-1.03,4.29-1.38h0Z"/>
        </g>
        <g>
          <line class="cls-12" x1="200.77" y1="460.47" x2="195.63" y2="604.63"/>
          <path class="cls-15" d="M200.77,460.47c.62,6.04,.99,12.06,1.38,18.09-.43,11.35-1.53,42.29-1.95,54.06-.42,11.87-1.52,42.57-1.93,54.06-.82,5.98-1.62,11.97-2.64,17.95-.59-6.04-.96-12.06-1.36-18.09,.4-11.35,1.51-42.29,1.93-54.06,.42-11.87,1.52-42.57,1.91-54.06,.81-5.99,1.61-11.97,2.66-17.95h0Z"/>
        </g>
        <g>
          <line class="cls-12" x1="134.61" y1="584.95" x2="195.63" y2="604.63"/>
          <path class="cls-15" d="M134.61,584.95c2.8,.03,5.52,.29,8.25,.54,2.53,.86,5.08,1.65,7.62,2.48l15.25,4.92c5.02,1.62,18.02,5.81,22.88,7.38,2.36,1.4,4.72,2.78,7.01,4.36-2.79-.06-5.51-.32-8.24-.56-4.8-1.55-17.9-5.77-22.88-7.38,0,0-15.25-4.92-15.25-4.92-2.55-.81-5.08-1.66-7.63-2.44-2.36-1.39-4.72-2.77-7.01-4.38h0Z"/>
        </g>
        <path class="cls-15" d="M351.78,605.72c-6.55,.83-13.11,1.42-19.66,2.02-12.39-.02-46.15-.02-58.99-.02-12.95,0-46.45,0-58.99,0-6.55-.61-13.11-1.2-19.66-2,6.55-.8,13.11-1.39,19.66-2,12.39,0,46.15,0,58.99,0,12.95,0,46.45,0,58.99-.02,6.55,.6,13.11,1.19,19.66,2.02h0Z"/>
        <g>
          <line class="cls-12" x1="699.66" y1="585.73" x2="639.26" y2="605.72"/>
          <path class="cls-15" d="M699.66,585.73c-2.25,1.62-4.59,3.02-6.92,4.42-2.53,.8-5.04,1.66-7.56,2.48l-15.1,5c-4.97,1.65-17.84,5.9-22.65,7.5-2.71,.26-5.41,.53-8.18,.6,2.26-1.59,4.6-2.99,6.92-4.4,4.76-1.57,17.72-5.87,22.65-7.5,0,0,15.1-5,15.1-5,2.51-.84,5.04-1.65,7.54-2.52,2.7-.27,5.41-.54,8.18-.58h0Z"/>
        </g>
        <g>
          <line class="cls-12" x1="633.92" y1="459.79" x2="639.26" y2="605.72"/>
          <path class="cls-15" d="M633.92,459.79c1.06,6.05,1.87,12.11,2.69,18.17,.4,11.49,1.55,42.82,1.98,54.73,.44,12.01,1.58,43.09,2,54.72-.39,6.1-.75,12.2-1.33,18.31-1.02-6.05-1.84-12.11-2.67-18.17-.42-11.49-1.57-42.81-2-54.72-.44-12.01-1.57-43.09-2.02-54.72,.37-6.1,.74-12.2,1.35-18.32h0Z"/>
        </g>
        <g>
          <line class="cls-12" x1="662.27" y1="626.27" x2="639.26" y2="605.72"/>
          <path class="cls-15" d="M662.27,626.27c-1.51-.23-2.87-.65-4.22-1.06-.93-.89-1.91-1.72-2.86-2.58l-5.75-5.14c-1.89-1.69-6.79-6.07-8.63-7.71-.55-1.31-1.12-2.61-1.54-4.06,1.49,.26,2.84,.67,4.21,1.08,1.81,1.62,6.75,6.03,8.63,7.71,0,0,5.75,5.14,5.75,5.14,.96,.85,1.9,1.73,2.89,2.55,.56,1.3,1.13,2.6,1.53,4.08h0Z"/>
        </g>
        <path class="cls-15" d="M484.01,605.86c6.47-.83,12.93-1.42,19.4-2.02,12.22,.02,45.53,.02,58.19,.02,12.77,0,45.82,0,58.19,0,6.47,.61,12.93,1.2,19.4,2-6.47,.8-12.93,1.39-19.4,2-12.22,0-45.53,0-58.19,0-12.77,0-45.82,0-58.19,.02-6.47-.6-12.93-1.19-19.4-2.02h0Z"/>
        <path class="cls-15" d="M353.18,540.76c1.69-.21,3.38-.34,5.07-.5h5.07s10.14,0,10.14,0c3.34,0,11.98,0,15.21,0,1.69,.17,3.38,.3,5.07,.5-1.69,.2-3.38,.33-5.07,.5-3.19,0-11.9,0-15.21,0,0,0-10.14,0-10.14,0,0,0-5.07,0-5.07,0-1.69-.17-3.38-.29-5.07-.5h0Z"/>
        <path class="cls-15" d="M393.75,545.63c-.83-.2-1.42-.41-2.02-.61,.04-.2,.01-.41,.02-.61v-1.22c0-.4,0-1.44,0-1.83,.61-.2,1.2-.41,2-.61,.8,.2,1.39,.41,2,.61,0,.38,0,1.43,0,1.83,0,0,0,1.22,0,1.22,0,.2-.02,.41,.02,.61-.6,.2-1.19,.41-2.02,.61h0Z"/>
        <path class="cls-15" d="M346.09,545.53c1.99-.21,3.97-.34,5.96-.5h5.96s11.92,0,11.92,0c3.92,0,14.07,0,17.87,0,1.99,.17,3.97,.3,5.96,.5-1.99,.2-3.97,.33-5.96,.5-3.75,0-13.98,0-17.87,0,0,0-11.92,0-11.92,0h-5.96c-1.99-.16-3.97-.29-5.96-.5h0Z"/>
        <path class="cls-15" d="M489.28,540.19c-1.99,.21-3.99,.34-5.98,.5h-5.98s-11.97,0-11.97,0c-3.94,0-14.14,0-17.95,0-1.99-.17-3.99-.3-5.98-.5,1.99-.2,3.99-.33,5.98-.5,3.77,0,14.04,0,17.95,0,0,0,11.97,0,11.97,0h5.98c1.99,.16,3.99,.29,5.98,.5h0Z"/>
        <path class="cls-15" d="M441.41,545.53c-.83-.22-1.42-.45-2.02-.67,.04-.22,.01-.45,.02-.67v-1.34c0-.44,0-1.58,0-2,.61-.22,1.2-.45,2-.67,.8,.22,1.39,.45,2,.67,0,.42,0,1.57,0,2,0,.47-.02,1.55,.02,2-.6,.22-1.19,.45-2.02,.67h0Z"/>
        <path class="cls-15" d="M489.28,545.34c-1.99,.21-3.99,.34-5.98,.5h-5.98s-11.97,0-11.97,0c-3.94,0-14.14,0-17.95,0-1.99-.17-3.99-.3-5.98-.5,1.99-.2,3.99-.33,5.98-.5,3.77,0,14.04,0,17.95,0,0,0,11.97,0,11.97,0,0,0,5.98,0,5.98,0,1.99,.17,3.99,.29,5.98,.5h0Z"/>
        <path class="cls-15" d="M393.75,531.45c.83,4.42,1.42,8.84,2.02,13.26-.02,8.35-.02,31.11-.02,39.77,0,8.73,0,31.31,0,39.77-.61,4.42-1.2,8.84-2,13.26-.8-4.42-1.39-8.84-2-13.26,0-8.35,0-31.11,0-39.77,0-8.73,0-31.31-.02-39.77,.6-4.42,1.19-8.84,2.02-13.26h0Z"/>
        <path class="cls-15" d="M343.63,637.06c2.16-.83,4.31-1.42,6.47-2.02,2.16,.04,4.31,.01,6.47,.02h12.93c4.26,0,15.28,0,19.4,0,2.16,.61,4.31,1.2,6.47,2-2.16,.8-4.31,1.39-6.47,2-4.07,0-15.18,0-19.4,0,0,0-12.93,0-12.93,0-2.16,0-4.31-.02-6.47,.02-2.16-.6-4.31-1.19-6.47-2.02h0Z"/>
        <path class="cls-15" d="M345.47,626.95c.83,.42,1.42,.84,2.02,1.26-.04,.42-.01,.84-.02,1.26,0,1.26,0,3.79,0,5.05,0,0,0,1.26,0,1.26-.61,.42-1.2,.84-2,1.26-.8-.42-1.39-.84-2-1.26v-1.26c0-1.26,0-3.79,0-5.05,0-.42,.02-.84-.02-1.26,.6-.42,1.19-.84,2.02-1.26h0Z"/>
        <path class="cls-15" d="M367.86,621.34c1.08-.21,2.16-.34,3.24-.5h3.24s6.47,0,6.47,0h9.71c1.08,.17,2.16,.3,3.24,.5-1.08,.2-2.16,.33-3.24,.5h-19.41c-1.08-.16-2.16-.29-3.24-.5,0,0,1.08,.21,0,0Z"/>
        <path class="cls-15" d="M367.86,553.3c.83,2.83,1.42,5.67,2.02,8.5-.04,2.83-.01,5.67-.02,8.5v17.01c0,5.6,0,20.09,0,25.51-.61,2.83-1.2,5.67-2,8.5-.8-2.83-1.39-5.67-2-8.5,0-5.36,0-19.96,0-25.51,0,0,0-17.01,0-17.01,0-2.83,.02-5.67-.02-8.5,.6-2.83,1.19-5.67,2.02-8.5h0Z"/>
        <g>
          <line class="cls-12" x1="361.91" y1="545.34" x2="367.97" y2="553.58"/>
          <path class="cls-15" d="M361.91,545.34c.92-.15,1.65-.16,2.38-.17,.22,.37,.5,.69,.74,1.04,.75,1.03,2.28,3.09,3.03,4.12,0,0,.76,1.03,.76,1.03-.24,.7-.46,1.4-.85,2.22-.9,.13-1.63,.14-2.37,.16l-.76-1.03c-.75-1.03-2.28-3.09-3.03-4.12-.26-.34-.49-.7-.77-1.02,.23-.7,.45-1.39,.87-2.23h0Z"/>
        </g>
        <g>
          <line class="cls-12" x1="367.86" y1="621.34" x2="363.99" y2="629.31"/>
          <path class="cls-15" d="M367.86,621.34c.59,.7,.96,1.29,1.33,1.88-.2,.31-.33,.66-.5,.99-.48,.99-1.45,2.99-1.94,3.99,0,0-.48,1-.48,1-.71,.07-1.4,.14-2.28,.12-.56-.68-.93-1.27-1.31-1.87l.48-1c.48-.99,1.45-2.99,1.94-3.99,.15-.34,.34-.66,.47-1.01,.7-.07,1.39-.15,2.3-.11h0Z"/>
        </g>
        <path class="cls-15" d="M364.27,637.06c-.83-.36-1.42-.71-2.02-1.07,.04-.36,.01-.71,.02-1.07,0-1.06,0-3.2,0-4.26,0,0,0-1.07,0-1.07,.61-.36,1.2-.71,2-1.07,.8,.36,1.39,.71,2,1.07v1.07c0,1.06,0,3.2,0,4.26,0,.36-.02,.71,.02,1.07-.6,.36-1.19,.71-2.02,1.07h0Z"/>
        <path class="cls-15" d="M471.1,636.34c-.83-.31-1.42-.62-2.02-.93,.04-.31,.01-.62,.02-.93,0-.93,0-2.8,0-3.73,0,0,0-.93,0-.93,.61-.31,1.2-.62,2-.93,.8,.31,1.39,.62,2,.93,0,.59,0,2.19,0,2.8,0,.65-.02,2.17,.02,2.8-.6,.31-1.19,.62-2.02,.93h0Z"/>
        <g>
          <line class="cls-12" x1="466.44" y1="621.01" x2="471.68" y2="630.16"/>
          <path class="cls-15" d="M466.44,621.01c.94-.03,1.67,.05,2.41,.14,.18,.4,.43,.77,.64,1.15,.65,1.14,1.97,3.44,2.62,4.58,0,0,.66,1.14,.66,1.14-.31,.68-.6,1.36-1.08,2.14-.91,.02-1.64-.07-2.39-.15l-.66-1.14c-.65-1.14-1.97-3.43-2.62-4.58-.23-.38-.42-.77-.67-1.13,.3-.68,.59-1.35,1.1-2.15h0Z"/>
        </g>
        <path class="cls-15" d="M441.72,621.34c1.05-.21,2.1-.34,3.15-.5h3.15s6.29,0,6.29,0h9.44c1.05,.17,2.1,.3,3.15,.5-1.05,.2-2.1,.33-3.15,.5h-18.88c-1.05-.16-2.1-.29-3.15-.5,0,0,1.05,.21,0,0Z"/>
        <path class="cls-15" d="M467.2,553.64c.83,2.86,1.42,5.71,2.02,8.57-.04,2.86-.01,5.71-.02,8.57v17.14c0,5.64,0,20.24,0,25.71-.61,2.86-1.2,5.71-2,8.57-.8-2.86-1.39-5.71-2-8.57,0-5.4,0-20.11,0-25.71,0,0,0-17.14,0-17.14,0-2.86,.02-5.71-.02-8.57,.6-2.86,1.19-5.71,2.02-8.57h0Z"/>
        <g>
          <line class="cls-12" x1="473.16" y1="545.34" x2="467.03" y2="553.87"/>
          <path class="cls-15" d="M473.16,545.34c.42,.84,.65,1.54,.88,2.24-.29,.33-.52,.7-.78,1.05-.76,1.06-2.3,3.2-3.06,4.26,0,0-.77,1.07-.77,1.07-.75,0-1.48,.01-2.39-.1-.4-.82-.62-1.52-.86-2.23l.77-1.07c.76-1.06,2.3-3.2,3.06-4.26,.25-.36,.53-.7,.75-1.08,.74,0,1.47-.02,2.41,.11h0Z"/>
        </g>
        <path class="cls-15" d="M441.41,531.45c.83,4.34,1.42,8.69,2.02,13.03-.02,8.21-.02,30.59-.02,39.1,0,8.58,0,30.79,0,39.1-.61,4.34-1.2,8.69-2,13.03-.8-4.34-1.39-8.69-2-13.03,0-8.21,0-30.59,0-39.1,0-8.58,0-30.79-.02-39.1,.6-4.34,1.19-8.69,2.02-13.03h0Z"/>
        <path class="cls-15" d="M471.1,635.72c-1.31,.83-2.62,1.42-3.92,2.02-1.31-.04-2.62-.01-3.92-.02h-7.85c-2.58,0-9.27,0-11.77,0-1.31-.61-2.62-1.2-3.92-2,1.31-.8,2.62-1.39,3.92-2,2.47,0,9.21,0,11.77,0,0,0,7.85,0,7.85,0,1.31,0,2.62,.02,3.92-.02,1.31,.6,2.62,1.19,3.92,2.02h0Z"/>
        <path class="cls-15" d="M491.34,635.72c-.84,.83-1.69,1.42-2.53,2.02-.84-.04-1.69-.01-2.53-.02-2.52,0-7.6,0-10.12,0,0,0-2.53,0-2.53,0-.84-.61-1.69-1.2-2.53-2,.84-.8,1.69-1.39,2.53-2h2.53c2.52,0,7.6,0,10.12,0,.84,0,1.69,.02,2.53-.02,.84,.6,1.69,1.19,2.53,2.02h0Z"/>
        <path class="cls-15" d="M489.69,625.89c.83,.41,1.42,.82,2.02,1.23-.04,.41-.01,.82-.02,1.23,0,1.23,0,3.69,0,4.92,0,0,0,1.23,0,1.23-.61,.41-1.2,.82-2,1.23-.8-.41-1.39-.82-2-1.23v-1.23c0-1.23,0-3.69,0-4.92,0-.41,.02-.82-.02-1.23,.6-.41,1.19-.82,2.02-1.23h0Z"/>
        <path class="cls-15" d="M441.41,624.73c-1.99,.83-3.97,1.42-5.96,2.02-1.99-.04-3.97-.01-5.96-.02h-11.92c-3.92,0-14.07,0-17.87,0-1.99-.61-3.97-1.2-5.96-2,1.99-.8,3.97-1.39,5.96-2,3.75,0,13.98,0,17.87,0,0,0,11.92,0,11.92,0,1.99,0,3.97,.02,5.96-.02,1.99,.6,3.97,1.19,5.96,2.02h0Z"/>
        <g>
          <rect class="cls-11" x="393.75" y="531.45" width="47.66" height="93.27"/>
          <path class="cls-15" d="M441.41,624.73c-11.04,.54-24.36,1.46-35.37,2-3.59,.12-8.67-.08-12.3,0,0,0-2,0-2,0,0,0,0-2,0-2v-93.27s0-2,0-2c0,0,2,0,2,0h47.66s2,0,2,0c0,0,0,2,0,2-.02,19.69-.03,39.54-.25,59.24-.39,7.3-1.37,26.5-1.75,34.03h0Zm0,0c-.37-7.94-1.33-28.27-1.75-35.92-.22-19.12-.23-38.22-.25-57.35,0,0,2,2,2,2h-47.66s2-2,2-2v93.27s-2-2-2-2c3.44,.04,8.15-.05,11.54,0,11.02,.62,25.01,1.45,36.13,2h0Z"/>
        </g>
        <g>
          <line class="cls-12" x1="633.99" y1="452.92" x2="583.18" y2="459.23"/>
          <path class="cls-15" d="M633.99,452.92c-2.01,1.09-4.06,1.94-6.1,2.79-2.12,.22-4.24,.51-6.35,.77l-12.7,1.58c-4.18,.52-15.01,1.86-19.06,2.36-2.19-.34-4.38-.66-6.6-1.2,2.02-1.06,4.06-1.91,6.11-2.77,4-.5,14.91-1.85,19.06-2.36,0,0,12.7-1.58,12.7-1.58,2.12-.27,4.24-.51,6.35-.81,2.19,.33,4.38,.65,6.6,1.22h0Z"/>
        </g>
        <g>
          <line class="cls-12" x1="642.62" y1="422.91" x2="624.41" y2="424.44"/>
          <path class="cls-15" d="M642.62,422.91c-.69,.89-1.4,1.55-2.11,2.2-.76,.02-1.52,.12-2.28,.17-2.27,.19-6.84,.58-9.11,.77,0,0-2.28,.19-2.28,.19-.81-.54-1.62-1.07-2.44-1.8,.69-.86,1.4-1.51,2.11-2.18l2.28-.19c2.27-.19,6.84-.58,9.11-.77,.76-.07,1.52-.11,2.28-.21,.81,.53,1.62,1.05,2.45,1.82h0Z"/>
        </g>
        <path class="cls-15" d="M600.44,428.96c-.33,.83-.66,1.42-.99,2.02-.33-.04-.66-.01-.99-.02-.99,0-2.98,0-3.97,0,0,0-.99,0-.99,0-.33-.61-.66-1.2-.99-2,.33-.8,.66-1.39,.99-2h.99c.99,0,2.98,0,3.97,0,.33,0,.66,.02,.99-.02,.33,.6,.66,1.19,.99,2.02h0Z"/>
        <g>
          <path class="cls-12" d="M621.53,416.77c.96,2.56,1.92,5.11,2.88,7.67,1.07,1.56,.95,3.52-.14,4.66-.87,.9-2.22,.91-2.88,.96-2.18,.15-5.24,1.77-9.04,8.22-4.02-2.92-8.04-5.84-12.05-8.77-.03-.13-.36-1.8,.82-3.01,.93-.95,2.4-1.23,3.7-.68v-7.4c3.38-.7,7.19-1.26,11.37-1.51,1.86-.11,3.64-.15,5.34-.14Z"/>
          <path class="cls-15" d="M621.53,416.77c1.16,2.26,2.45,4.73,3.71,7.36l-.1-.19c.66,.8,1.1,1.88,1,2.98,.01,2.43-2.1,4.16-4.34,4.12-4.38,.34-7.03,5.29-9.15,8.7-.49-.37-12.57-9.14-13.26-9.65-.41-1.67,0-3.53,1.38-4.62,1.25-1.02,3.02-1.19,4.44-.58l-1.39,.92c0-.4,0-8.06,0-8.21,3.05-.57,6.11-1.3,9.22-1.35,2.43-.09,6,.3,8.49,.52h0Zm0,0c-5.6,.76-10.97,1.64-16.51,2.62,0,0,.8-.98,.8-.98,0,1.12,0,7.98,0,8.92,0,0-1.39-.6-1.39-.6-1.74-.78-3.57,.74-3.15,2.56,0,0-.39-.6-.39-.6l12.05,8.77-1.45,.3c.9-1.52,1.88-3.01,3.05-4.4,1.44-1.71,3.32-3.51,5.67-4.12,1.05-.3,2.57-.08,3.27-.77,1-.92,.71-2.58,.09-3.72,0,0-2.04-7.98-2.04-7.98h0Z"/>
        </g>
        <g>
          <path class="cls-12" d="M615.09,403.89c8.48-.54,14.89-.76,17.53-.68,.52,.02,1.58,.08,2.33,.82,.88,.87,1.11,2.3,.55,3.56,1.87,.41,3.74,.82,5.62,1.23,.93,.72,1.45,1.63,1.23,2.33-.06,.18-.29,.77-2.19,1.23-1.16,.28-3.08,.55-5.62,0-.16,.77-.5,1.87-1.23,3.01-1.36,2.11-3.26,3.06-4.11,3.42-1.24-.67-2.58-1.49-3.97-2.47-1.77-1.25-3.27-2.52-4.52-3.7-1,1.19-2.01,2.37-3.01,3.56-3.31,.44-4.4-.18-4.79-.82-.86-1.42,1.31-3.58,.27-5.34-.77-1.3-2.5-1.03-2.74-1.92-.19-.69,.56-1.91,4.66-4.25Z"/>
          <path class="cls-15" d="M615.09,403.89c5.98-1.07,11.88-1.96,18-1.66,2.89,.08,4.53,3.27,3.32,5.77,0,0-.7-1.39-.7-1.39l5.62,1.23,.22,.05,.17,.14c1.77,1.27,2.6,3.88,.01,4.89-2.36,.95-4.99,.96-7.41,.44,0,0,1.19-.77,1.19-.77-.65,3.35-3.2,6.16-6.37,7.34,0,0-.43-.23-.43-.23-3.16-1.72-6.09-3.85-8.7-6.32l1.45-.08-3.01,3.56s-.25,.3-.25,.3c-3.53,.61-7.95,.14-6.05-4.62,.45-1.64,.62-2.28-1.09-3.01-3.95-2.07,2.24-4.87,4.03-5.64h0Zm0,0c-1.32,.99-2.79,2.04-3.78,3.32-.22,.3-.35,.67-.27,.74,.04,.03,.03,0,.11,.05,2.89,.61,4,2.33,2.91,5.15-.56,1.73-.68,1.99,1.14,2.19,.75,.05,1.56-.02,2.37-.12l-.63,.35,3.01-3.56,.68-.81,.77,.73c2.48,2.35,5.28,4.38,8.28,6.01l-.87-.04c2.78-1.12,4.59-3.78,4.96-6.71,0,0,.98,.22,.98,.22,2.14,.5,4.94,.39,6.64-.55,.04-.35-.51-.96-.89-1.24,0,0,.4,.19,.4,.19-.93-.21-6.04-1.32-6.82-1.5,0,0,.51-1.12,.51-1.12,.6-1.35-.03-2.9-1.67-2.96-2.87-.16-5.93,.23-8.83,.05-1.91-.06-7.02-.29-8.99-.38h0Z"/>
        </g>
        <g>
          <line class="cls-12" x1="598.93" y1="409.78" x2="601.67" y2="420.05"/>
          <path class="cls-15" d="M598.93,409.78c.92,.21,1.6,.49,2.29,.76,.08,.44,.22,.86,.32,1.29,.34,1.28,1.03,3.86,1.37,5.14,0,0,.34,1.28,.34,1.28-.47,.58-.93,1.16-1.59,1.8-.89-.22-1.57-.5-2.27-.77l-.34-1.28c-.34-1.28-1.03-3.86-1.37-5.14-.12-.43-.21-.86-.36-1.28,.46-.58,.92-1.16,1.61-1.8h0Z"/>
        </g>
        <path class="cls-7" d="M491.55,326.64c.23-1.96,.46-3.93,.68-5.89,1.42-.14,2.83-.27,4.25-.41,.2-.41,.77-1.41,1.92-1.92,1.19-.53,2.31-.23,3.15,0,2.28,.62,3.72,2.17,4.38,3.01,1.69-.09,3.38-.18,5.07-.27,.27,1.78,.55,3.56,.82,5.34,.49,.17,1.73,.69,2.05,1.78,.19,.64,.08,1.53-1.1,3.01-2.76,3.48-9.08,7.31-11.09,8.49-7.55-2.27-12.17-6.57-11.78-10.14,.08-.73,.41-1.8,1.64-3.01Z"/>
        <polygon class="cls-15" points="513.87 330.29 498.57 328.29 513.87 326.29 513.87 330.29 513.87 330.29"/>
        <polygon class="cls-15" points="486.65 326.01 496.21 328.01 486.65 330.01 486.65 326.01 486.65 326.01"/>
      </g>
      <text class="cls-2" transform="translate(120.66 779.95)"><tspan class="cls-3" x="0" y="0">R</tspan><tspan class="cls-4" x="73.23" y="0">U</tspan><tspan class="cls-14" x="157.23" y="0">MO</tspan><tspan x="340.59" y="0">H.ID</tspan></text>
    </g>
  </g>
</svg>